<svg width="23" height="23" viewBox="0 0 23 23" fill="none" xmlns="http://www.w3.org/2000/svg">
<rect width="23" height="23" fill="#FFD400"/>
<path d="M19.5849 0.71875L15.4737 4.80844L15.9984 5.35469L20.1096 1.25781L19.5849 0.71875Z" fill="black"/>
<path d="M16.6237 7.32406L18.3415 5.6925L17.6587 4.99531L12.8 9.63843C12.685 9.75343 12.6275 9.91875 12.6634 10.0841C12.6993 10.2494 12.8072 10.3787 12.9653 10.4434L14.0793 10.8891L9.09121 15.0578L11.0822 11.0759C11.19 10.8387 11.1037 10.5656 10.8737 10.4362L9.12715 9.48031L13.2672 5.51281L16.1997 2.7025L15.4881 2.03406L13.375 4.07531C12.5412 3.565 11.7218 3.32781 10.9025 3.32781C9.16309 3.32781 7.2009 4.77249 5.51903 7.28812C4.00246 9.55218 2.99621 12.2834 2.8884 14.4181C2.7734 16.675 3.39871 18.515 4.75715 19.895C6.2809 21.4547 8.67434 22.2956 11.5278 22.2956C11.6787 22.2956 11.8368 22.2956 11.995 22.2884C14.4387 22.2094 16.329 21.4691 17.6012 20.0891C18.8662 18.7162 19.4843 16.7469 19.3765 14.375C19.2831 12.3266 18.2122 9.59531 16.6381 7.33125L16.6237 7.32406ZM16.6668 19.2266C15.6247 20.355 14.0362 20.9587 11.9375 21.0234C9.23496 21.1097 6.99965 20.3909 5.63403 19.0037C4.53434 17.8897 4.03121 16.3587 4.12465 14.4684C4.31871 10.5584 7.98434 4.57124 10.8881 4.57124C11.4128 4.57124 11.9015 4.67906 12.4262 4.96656L7.96278 9.27906C7.86215 9.38687 7.81184 9.54499 7.8334 9.68875C7.85496 9.83968 7.9484 9.96906 8.08496 10.0409L9.98246 11.0759L7.15778 16.8331C7.05715 17.0416 7.12184 17.2931 7.30871 17.4369C7.38059 17.4944 7.46684 17.5231 7.56028 17.5303C7.68965 17.5447 7.82621 17.5016 7.93403 17.4081L15.3084 11.0903C15.4378 10.9753 15.4953 10.81 15.4593 10.6375C15.4306 10.4722 15.3156 10.3284 15.1575 10.2709L14.0075 9.81812L15.6965 8.20812C17.0622 10.2278 18.0253 12.6787 18.1043 14.4253C18.169 15.8341 17.9678 17.8178 16.6597 19.2266H16.6668Z" fill="black"/>
</svg>
